<svg id="visual" viewBox="0 0 900 600" width="900" height="600" xmlns="http://www.w3.org/2000/svg" xmlns:xlink="http://www.w3.org/1999/xlink" version="1.1"><rect x="0" y="0" width="900" height="600" fill="#001220"></rect><path d="M0 365L21.5 362.5C43 360 86 355 128.8 363C171.7 371 214.3 392 257.2 402.7C300 413.3 343 413.7 385.8 413.5C428.7 413.3 471.3 412.7 514.2 402.3C557 392 600 372 642.8 363.7C685.7 355.3 728.3 358.7 771.2 365.8C814 373 857 384 878.5 389.5L900 395L900 601L878.5 601C857 601 814 601 771.2 601C728.3 601 685.7 601 642.8 601C600 601 557 601 514.2 601C471.3 601 428.7 601 385.8 601C343 601 300 601 257.2 601C214.3 601 171.7 601 128.8 601C86 601 43 601 21.5 601L0 601Z" fill="#fa7268"></path><path d="M0 480L21.5 475C43 470 86 460 128.8 457.5C171.7 455 214.3 460 257.2 460C300 460 343 455 385.8 445.8C428.7 436.7 471.3 423.3 514.2 424C557 424.7 600 439.3 642.8 444.3C685.7 449.3 728.3 444.7 771.2 435.7C814 426.7 857 413.3 878.5 406.7L900 400L900 601L878.5 601C857 601 814 601 771.2 601C728.3 601 685.7 601 642.8 601C600 601 557 601 514.2 601C471.3 601 428.7 601 385.8 601C343 601 300 601 257.2 601C214.3 601 171.7 601 128.8 601C86 601 43 601 21.5 601L0 601Z" fill="#ef5f67"></path><path d="M0 465L21.5 464.2C43 463.3 86 461.7 128.8 464.2C171.7 466.7 214.3 473.3 257.2 480C300 486.7 343 493.3 385.8 492.2C428.7 491 471.3 482 514.2 477.8C557 473.7 600 474.3 642.8 472.7C685.7 471 728.3 467 771.2 461.3C814 455.7 857 448.3 878.5 444.7L900 441L900 601L878.5 601C857 601 814 601 771.2 601C728.3 601 685.7 601 642.8 601C600 601 557 601 514.2 601C471.3 601 428.7 601 385.8 601C343 601 300 601 257.2 601C214.3 601 171.7 601 128.8 601C86 601 43 601 21.5 601L0 601Z" fill="#e34c67"></path><path d="M0 524L21.5 524.5C43 525 86 526 128.8 523.7C171.7 521.3 214.3 515.7 257.2 510.2C300 504.7 343 499.3 385.8 498.3C428.7 497.3 471.3 500.7 514.2 499.8C557 499 600 494 642.8 498C685.7 502 728.3 515 771.2 519.7C814 524.3 857 520.7 878.5 518.8L900 517L900 601L878.5 601C857 601 814 601 771.2 601C728.3 601 685.7 601 642.8 601C600 601 557 601 514.2 601C471.3 601 428.7 601 385.8 601C343 601 300 601 257.2 601C214.3 601 171.7 601 128.8 601C86 601 43 601 21.5 601L0 601Z" fill="#d53867"></path><path d="M0 545L21.5 547.5C43 550 86 555 128.8 556C171.7 557 214.3 554 257.2 552.7C300 551.3 343 551.7 385.8 549.5C428.7 547.3 471.3 542.7 514.2 540C557 537.3 600 536.7 642.8 542.3C685.7 548 728.3 560 771.2 559.8C814 559.7 857 547.3 878.5 541.2L900 535L900 601L878.5 601C857 601 814 601 771.2 601C728.3 601 685.7 601 642.8 601C600 601 557 601 514.2 601C471.3 601 428.7 601 385.8 601C343 601 300 601 257.2 601C214.3 601 171.7 601 128.8 601C86 601 43 601 21.5 601L0 601Z" fill="#c62368"></path></svg>